<?xml version="1.0" encoding="utf-8"?>
<!-- Generator: Adobe Illustrator 22.1.0, SVG Export Plug-In . SVG Version: 6.00 Build 0)  -->
<svg version="1.1" id="Layer_1" xmlns="http://www.w3.org/2000/svg" xmlns:xlink="http://www.w3.org/1999/xlink" x="0px" y="0px"
	 viewBox="0 0 200 200" style="enable-background:new 0 0 200 200;" xml:space="preserve">
<style type="text/css">
	.st0{fill:#7A5743;}
	.st1{fill:#42210B;}
	.st2{fill:#EDC28E;}
	.st3{fill:#0A0A0A;}
	.st4{fill:#F7F6F5;}
	.st5{fill:#FFFEF0;}
	.st6{fill:#FFFFFF;}
	.st7{fill:#ED9DF9;}
</style>
<g>
	<path class="st0" d="M28.9,35C15,49.4,6.3,60.6,11.5,66s22.2,2.9,36.2-11.6s39.9-29.1,34.8-34.4C77.3,14.6,42.9,20.5,28.9,35z"/>
	<path class="st1" d="M81.2,17C70,22.6,43.8,26.2,32.6,31.8C22.1,44.9,15.8,59.9,5.3,73.1C6.5,63.7,7.7,54.4,9,45
		c1-8.7,2-17.4,2.9-26.1c10.2-0.5,20.4-1,30.6-1.6C51.7,17.1,71.9,17.2,81.2,17z"/>
</g>
<g>
	<path class="st0" d="M176.8,35c14,14.5,22.6,25.6,17.4,31c-5.2,5.4-22.2,2.9-36.2-11.6c-14-14.5-39.9-29.1-34.8-34.4
		C128.5,14.6,162.9,20.5,176.8,35z"/>
	<path class="st1" d="M124.6,17c11.2,5.6,37.4,9.2,48.6,14.8c10.5,13.2,16.9,28.2,27.3,41.4c-1.2-9.4-2.4-18.8-3.7-28.2
		c-1-8.7-2-17.4-2.9-26.1c-10.2-0.5-20.4-1-30.6-1.6C154.1,17.1,133.9,17.2,124.6,17z"/>
</g>
<path class="st2" d="M184.1,97.3c0,11.5-1.9,22.5-5.4,32.7c-3.8,11.2-9.5,21.3-16.7,29.8c-0.2,0.2-0.4,0.5-0.6,0.7
	c-0.2,0.2-0.3,0.4-0.5,0.6c0,0.1-0.1,0.1-0.1,0.2c-8.9,10.1-19.8,17.8-32,22.3c-8.2,2.8-16.6,4.3-24.7,4.4c-4.3,0-8.1-0.3-11.1-0.7
	c-0.2,0-0.4-0.1-0.6-0.1c-3.2-0.5-6.3-1.2-9.3-2.1c-0.1,0-0.1,0-0.2-0.1c-5.9-2-19.2-7.3-31.2-18.5c-7.2-6.9-13.3-15.2-18-24.6
	c-0.1-0.1-0.1-0.3-0.2-0.4c0-0.1-0.1-0.2-0.1-0.2c-0.4-0.8-0.8-1.5-1.1-2.3c-0.7-1.4-1.3-2.9-1.9-4.4c0,0,0,0,0,0
	c-0.1-0.4-0.3-0.7-0.4-1.1c-0.7-1.9-1.4-3.8-2-5.7c-3-9.5-4.7-19.8-4.7-30.5c0-11,1.7-21.1,4.8-30.3c8.4-24.6,27.2-41.8,50.9-48.7
	C86.5,16.2,94.6,15,103,15c8.4,0,16.5,1.1,24.1,3.3h0c24.1,6.9,43.5,24.3,52.1,49.2C182.4,76.5,184.1,86.5,184.1,97.3z"/>
<g>
	
		<ellipse transform="matrix(0.6359 -0.7718 0.7718 0.6359 -30.8085 77.8334)" class="st1" cx="67.1" cy="71.6" rx="12.8" ry="12.7"/>
	<circle class="st3" cx="67.1" cy="71.5" r="8.1"/>
	<circle class="st4" cx="71.6" cy="66.1" r="3.7"/>
</g>
<g>
	
		<ellipse transform="matrix(0.6359 -0.7718 0.7718 0.6359 -4.2964 134.0263)" class="st1" cx="139.9" cy="71.6" rx="12.8" ry="12.7"/>
	<circle class="st3" cx="140" cy="71.5" r="8.1"/>
	<circle class="st4" cx="144.4" cy="66.1" r="3.7"/>
</g>
<g>
	<g>
		<path class="st1" d="M106.8,111.2c0-0.1,0-0.3,0-0.4c0-0.8-0.7-1.5-1.5-1.5c-0.8,0-1.5,0.7-1.5,1.5c0,0.1,0,0.3,0,0.4
			c0,0.8,0.7,1.5,1.5,1.5C106.1,112.7,106.8,112.1,106.8,111.2L106.8,111.2z"/>
	</g>
</g>
<path class="st5" d="M178.7,130c-3.8,11.2-9.5,21.3-16.7,29.8c-0.2,0.2-0.4,0.5-0.6,0.7c-0.2,0.2-0.3,0.4-0.5,0.6
	c0,0.1-0.1,0.1-0.1,0.2c-8.9,10.1-19.8,17.8-32,22.3c-8.2,2.8-16.6,4.3-24.7,4.4c-4.3,0-8.1-0.3-11.1-0.7c-0.2,0-0.4-0.1-0.6-0.1
	c-2.9-0.4-5.1-0.9-6.3-1.2c0,0-1.1-0.3-3-0.9c-0.1,0-0.1,0-0.2-0.1c-5.9-2-19.2-7.3-31.2-18.5c-7.2-6.9-13.3-15.2-18-24.6
	c0-0.1-0.1-0.2-0.2-0.4c0-0.1-0.1-0.2-0.1-0.2c-0.4-0.8-0.8-1.5-1.1-2.3c-0.7-1.4-1.3-2.9-1.9-4.4c0,0,0,0,0,0
	c-0.1-0.3-0.2-0.7-0.4-1.1c-0.7-1.9-1.4-3.8-2-5.7c2.9-7,8.8-22.1,24.3-32.5c14.5-9.8,33.7-16.9,52.9-16.7
	c34.7,0.3,73,24.8,73.7,50.6C178.7,129.5,178.7,129.8,178.7,130z"/>
<circle class="st0" cx="4.9" cy="135" r="0.2"/>
<g>
	<g>
		<path class="st0" d="M107.3,95.1c-8.1-0.6-12.2-0.9-17.3,0c-8.1,1.4-13.7,4.9-18.2,7.6c-4.3,2.7-10.7,7.3-16.9,14.8
			c-1.1,1.6-9.1,12.9-10.6,24.1c-0.7,4.9-0.1,9.9,0.8,13.1c0.4,1.3,0.8,2.3,1.4,3.3c1.6,2.8,4,4.2,4.7,4.9c7,6.1,10.5,9.2,13.6,11.3
			c15.2,10,31.2,11.6,32.5,11.8c18.6,1.7,32.6-4.9,40-8.5c8-3.8,12.2-7,18.5-12.2c3.1-2.6,4.4-4.2,5.4-6.3c0.8-1.6,2.5-5.7,0-16
			c-1.3-5.5-3.7-12.1-8-19.4c-3.6-6-7.6-12.7-15.6-18.6c-2.1-1.5-7.6-5.3-15.6-7.6C117.4,95.8,113.9,95.6,107.3,95.1z"/>
	</g>
</g>
<path class="st6" d="M87.2,129.1c-0.9,1.7-11.9,3.8-13.3,2.6c-1.7-1.5,1.7-22.4,3-22.6C78.2,108.8,88.3,127,87.2,129.1z"/>
<path class="st6" d="M135.8,131.9c-1.5,1.1-12.3-2.4-13-4.1c-0.9-2.2,11.7-19.1,13-18.7C137.1,109.5,137.8,130.6,135.8,131.9z"/>
<path class="st1" d="M155.4,158.8c1.8-17.3-24.9-37.5-50-37.4c-25.4,0.1-52.1,21-50,38.3c2,16.4,29.5,26.7,50,26.6
	C126.1,186.2,153.7,175.4,155.4,158.8z"/>
<path class="st1" d="M82.9,92.2c0,5.9,9.9,13.8,22.2,13.8s19.2-7.9,19.2-13.8s-6.9-7.7-19.2-7.7S82.9,86.3,82.9,92.2z"/>
<ellipse class="st7" cx="104.4" cy="124.1" rx="16.5" ry="5.8"/>
</svg>
